<svg version="1.1" viewBox="0.0 0.0 510.0577427821522 509.3018372703412" fill="none" stroke="none" stroke-linecap="square" stroke-miterlimit="10" xmlns:xlink="http://www.w3.org/1999/xlink" xmlns="http://www.w3.org/2000/svg"><clipPath id="p.0"><path d="m0 0l510.05774 0l0 509.30185l-510.05774 0l0 -509.30185z" clip-rule="nonzero"/></clipPath><g clip-path="url(#p.0)"><path fill="#000000" fill-opacity="0.0" d="m0 0l510.05774 0l0 509.30185l-510.05774 0z" fill-rule="evenodd"/><path fill="#ffffff" d="m508.0 507.08685l-140.8819 0l22.678589 -32.215454l85.01013 0l0 -120.75885l33.193176 -47.151672z" fill-rule="evenodd"/><path fill="#ffffff" d="m508.0 0l-140.8819 0l23.039612 32.72827l84.64911 0l0 120.24603l33.193176 47.151688z" fill-rule="evenodd"/><path fill="#ffffff" d="m-7.28084E-4 507.0866l140.8819 0l-23.039597 -32.72827l-84.64911 0l0 -120.24603l-33.193184 -47.151672z" fill-rule="evenodd"/><path fill="#ffffff" d="m0 2.4514436E-4l140.8819 0l-22.678596 32.21546l-85.01012 0l0 120.75884l-33.193184 47.151688z" fill-rule="evenodd"/><path fill="#000000" fill-opacity="0.0" d="m56.927822 30.955381l273.19684 0l0 294.55118l-273.19684 0z" fill-rule="evenodd"/><path fill="#ffffff" d="m153.5997 297.2835q-15.84375 0 -35.640633 -2.703125q-12.625 -1.59375 -18.125 -7.453125q-5.5 -5.859375 -4.828125 -17.859375q1.890625 -26.75 8.859375 -65.8125q6.984375 -39.0625 16.9375 -75.328125q2.546875 -9.09375 9.843758 -12.578125q7.3125 -3.484375 17.625 -3.484375q21.8125 0 21.8125 14.609375q0 4.625 -1.875 10.28125q-6.828125 20.984375 -13.703125 56.546875q-6.875 35.5625 -9.28125 62.34375q2.265625 0.21875 12.109375 0.21875q44.03125 0 65.640625 -26.46875q21.609375 -26.484375 21.609375 -71.71875q0 -29.359375 -16.46875 -45.09375q-16.46875 -15.75 -47.3125 -15.75q-20.46875 0 -40.640625 6.421875q-20.171883 6.421875 -36.265633 16.90625q-4.84375 3.328125 -10.5625 3.328125q-7.453125 0 -11.4375 -5.78125q-3.96875 -5.78125 -3.96875 -13.09375q0 -7.75 2.765625 -13.109375q2.765625 -5.359375 8.984375 -9.59375q19.203125 -13.09375 44.796883 -19.828129q25.609375 -6.75 49.265625 -6.75q33.78125 0 58.84375 11.984379q25.078125 11.96875 38.6875 35.21875q13.609375 23.25 13.609375 55.671875q0 41.65625 -16.71875 73.015625q-16.71875 31.34375 -48.734375 48.609375q-32.015625 17.25 -75.828125 17.25z" fill-rule="nonzero"/><path fill="#000000" fill-opacity="0.0" d="m193.87534 180.3622l273.19684 0l0 294.5512l-273.19684 0z" fill-rule="evenodd"/><path fill="#ffffff" d="m445.4222 269.1591q0 24.90625 -17.359375 42.703125q-17.34375 17.78125 -33.15625 20.28125q2.0 -0.6875 11.71875 11.03125q9.734375 11.703125 9.734375 27.046875q0 23.109375 -14.359375 39.953125q-14.359375 16.828125 -40.859375 25.609375q-26.5 8.78125 -63.125 8.78125q-13.609375 0 -16.0 -0.234375q-0.15625 4.53125 -8.234375 9.4375q-8.0625 4.921875 -19.234375 4.921875q-12.171875 0 -17.328125 -6.109375q-5.140625 -6.09375 -4.46875 -16.59375q2.421875 -37.609375 9.390625 -78.828125q6.984375 -41.21875 17.734375 -79.640625q2.5625 -9.078125 9.859375 -12.5625q7.296875 -3.484375 17.625 -3.484375q21.8125 0 21.8125 14.609375q0 4.640625 -1.890625 10.296875q-6.828125 20.453125 -13.703125 55.734375q-6.859375 35.28125 -9.265625 61.703125q7.0 0.59375 14.765625 0.59375q35.765625 0 51.234375 -9.578125q15.484375 -9.578125 15.484375 -23.28125q0 -9.0625 -8.25 -15.65625q-8.234375 -6.59375 -29.890625 -7.328125q-7.703125 -0.390625 -11.3125 -4.4375q-3.609375 -4.0625 -3.609375 -11.515625q0 -9.390625 4.453125 -16.078125q4.46875 -6.703125 15.875 -7.0625q18.125 -0.5 32.40625 -5.21875q14.296875 -4.734375 21.84375 -12.625q7.5625 -7.90625 7.5625 -17.9375q0 -12.296875 -13.1875 -20.031265q-13.1875 -7.75 -43.140625 -7.75q-27.78125 0 -53.71875 7.125q-25.9375 7.1250153 -43.96875 17.95314q-9.859375 5.84375 -17.234375 5.84375q-7.546875 0 -11.484375 -5.15625q-3.9375 -5.171875 -3.9375 -12.125q0 -8.156265 3.546875 -14.250015q3.5625 -6.09375 15.515625 -12.953125q23.09375 -13.1875 53.921875 -20.5625q30.84375 -7.375 62.96875 -7.375q49.984375 0 75.625 17.578125q25.640625 17.578125 25.640625 47.17189z" fill-rule="nonzero"/></g></svg>