<svg version="1.1" viewBox="0.0 0.0 901.0971128608924 268.16272965879267" fill="none" stroke="none" stroke-linecap="square" stroke-miterlimit="10" xmlns:xlink="http://www.w3.org/1999/xlink" xmlns="http://www.w3.org/2000/svg"><clipPath id="p.0"><path d="m0 0l901.0971 0l0 268.16272l-901.0971 0l0 -268.16272z" clip-rule="nonzero"/></clipPath><g clip-path="url(#p.0)"><path fill="#000000" fill-opacity="0.0" d="m0 0l901.0971 0l0 268.16272l-901.0971 0z" fill-rule="evenodd"/><path fill="#ffffff" d="m256.41464 266.78217l-77.76378 0l13.1332245 -17.782257l46.30864 0l0 -62.7014l18.321915 -24.807693z" fill-rule="evenodd"/><path fill="#ffffff" d="m248.41466 0l-77.763794 0l13.342285 18.065304l46.09958 0l0 62.41834l18.32193 24.807693z" fill-rule="evenodd"/><path fill="#ffffff" d="m-4.8031496E-5 266.782l77.76378 0l-13.342278 -18.065292l-46.09958 0l0 -62.41835l-18.321924 -24.807693z" fill-rule="evenodd"/><path fill="#ffffff" d="m3.5406824E-4 1.2913386E-4l77.76379 0l-13.1332245 17.782244l-46.30863 0l0 62.7014l-18.321924 24.807693z" fill-rule="evenodd"/><path fill="#000000" fill-opacity="0.0" d="m18.989668 12.506436l141.07086 0l0 148.69292l-141.07086 0z" fill-rule="evenodd"/><path fill="#ffffff" d="m71.817795 150.17831q-7.921879 0 -17.828129 -1.359375q-6.296875 -0.78125 -9.046875 -3.703125q-2.75 -2.9375 -2.421875 -8.953125q0.953125 -13.359375 4.4375 -32.890625q3.5 -19.53125 8.453125 -37.65625q1.28125 -4.562504 4.921875 -6.296879q3.65625 -1.734375 8.828129 -1.734375q10.890625 0 10.890625 7.296879q0 2.3125 -0.9375 5.125q-3.40625 10.484375 -6.859375 28.28125q-3.4375 17.78125 -4.640625 31.171875q1.140625 0.109375 6.078125 0.109375q22.015625 0 32.8125 -13.234375q10.8125 -13.25 10.8125 -35.859375q0 -14.671875 -8.234375 -22.546879q-8.234375 -7.890625 -23.65625 -7.890625q-10.234375 0 -20.328125 3.21875q-10.078129 3.203125 -18.125004 8.453125q-2.421875 1.671875 -5.28125 1.671875q-3.71875 0 -5.71875 -2.890625q-1.984375 -2.890625 -1.984375 -6.546875q0 -3.875 1.375 -6.546875q1.390625 -2.671875 4.5 -4.796875q9.578125 -6.53125 22.390625 -9.90625q12.812504 -3.374998 24.625004 -3.374998q16.890625 0 29.421875 5.984373q12.53125 5.984375 19.328125 17.609375q6.8125 11.609379 6.8125 27.828129q0 20.828125 -8.359375 36.5q-8.34375 15.671875 -24.359375 24.3125q-16.0 8.625 -37.90625 8.625z" fill-rule="nonzero"/><path fill="#000000" fill-opacity="0.0" d="m84.22327 90.05798l141.07086 0l0 148.69292l-141.07086 0z" fill-rule="evenodd"/><path fill="#ffffff" d="m214.48889 138.96423q0 12.453125 -8.671875 21.359375q-8.671875 8.890625 -16.59375 10.140625q0.984375 -0.34375 5.859375 5.515625q4.875 5.84375 4.875 13.515625q0 11.546875 -7.1875 19.96875q-7.171875 8.40625 -20.421875 12.796875q-13.234375 4.390625 -31.5625 4.390625q-6.8125 0 -8.0 -0.125q-0.078125 2.296875 -4.125 4.75q-4.03125 2.453125 -9.609375 2.453125q-6.078125 0 -8.65625 -3.046875q-2.5625 -3.046875 -2.234375 -8.296875q1.203125 -18.8125 4.6875 -39.421875q3.5 -20.609375 8.875 -39.796875q1.265625 -4.5625 4.921875 -6.296875q3.65625 -1.734375 8.8125 -1.734375q10.890625 0 10.890625 7.296875q0 2.3125 -0.9375 5.140625q-3.40625 10.21875 -6.84375 27.875q-3.4375 17.640625 -4.640625 30.84375q3.5 0.296875 7.390625 0.296875q17.890625 0 25.625 -4.78125q7.75 -4.796875 7.75 -11.640625q0 -4.546875 -4.125 -7.84375q-4.125 -3.296875 -14.96875 -3.65625q-3.84375 -0.203125 -5.640625 -2.234375q-1.796875 -2.03125 -1.796875 -5.734375q0 -4.703125 2.21875 -8.046875q2.21875 -3.34375 7.921875 -3.515625q9.0625 -0.265625 16.21875 -2.625q7.15625 -2.359375 10.921875 -6.3125q3.78125 -3.953125 3.78125 -8.96875q0 -6.15625 -6.59375 -10.03125q-6.59375 -3.875 -21.578125 -3.875q-13.890625 0 -26.875 3.578125q-12.96875 3.5625 -21.96875 8.96875q-4.921875 2.921875 -8.625 2.921875q-3.765625 0 -5.734375 -2.578125q-1.953125 -2.578125 -1.953125 -6.046875q0 -4.09375 1.765625 -7.125q1.78125 -3.046875 7.75 -6.484375q11.546875 -6.59375 26.953125 -10.265625q15.421875 -3.6875 31.484375 -3.6875q25.0 0 37.8125 8.796875q12.828125 8.78125 12.828125 23.5625z" fill-rule="nonzero"/><path fill="#000000" fill-opacity="0.0" d="m269.34647 49.82677l683.18115 0l0 136.94489l-683.18115 0z" fill-rule="evenodd"/><path fill="#ffffff" d="m314.4871 112.78927q0 -1.8125 -1.921875 -1.8125l-1.46875 0.09375l0.53125 -2.234375q8.84375 -0.671875 16.609375 -2.234375q-2.703125 7.28125 -4.015625 13.125l-3.4375 14.531242q-4.0 17.28125 -8.328125 23.796875q3.59375 0.828125 7.5 0.828125q8.484375 0 15.125 -3.984375q6.640625 -3.984375 10.265625 -11.171875q3.625 -7.1875 3.625 -16.093742q0 -7.5 -2.953125 -13.40625q-2.9375 -5.90625 -8.359375 -9.109375q-5.40625 -3.203125 -12.390625 -3.203125q-8.703125 0 -16.59375 4.1875q-7.875 4.1875 -12.796875 11.328125q-4.921875 7.140625 -4.921875 14.578117q0 3.546875 1.5 6.15625q1.515625 2.59375 5.3125 4.625q1.828125 0.828125 1.828125 2.234375q0 1.203125 -1.0 2.203125q-0.984375 0.984375 -2.4375 0.984375q-4.21875 0 -7.34375 -4.375q-3.125 -4.375 -3.125 -9.796875q0 -9.312492 5.859375 -17.671867q5.859375 -8.359375 15.640625 -13.09375q9.796875 -4.75 21.3125 -4.75q9.6875 0 17.28125 3.421875q7.609375 3.40625 11.71875 9.578125q4.109375 6.171875 4.109375 13.984375q0 9.781242 -5.3125 18.249992q-5.296875 8.453125 -14.578125 13.328125q-9.265625 4.875 -20.3125 4.875q-3.84375 0 -9.15625 -0.421875q-5.3125 -0.421875 -11.921875 -0.421875q-5.46875 0 -7.140625 0.109375l1.140625 -2.546875q4.328125 -0.109375 5.5 -0.546875q1.171875 -0.453125 2.03125 -1.46875q0.859375 -1.015625 1.640625 -2.984375q2.59375 -6.359375 3.53125 -10.0625l2.921875 -11.296875q4.53125 -17.437492 4.53125 -19.531242zm91.09134 -13.953125q11.03125 0 17.828125 6.828125q6.796875 6.8125 6.796875 18.125q0 9.578117 -5.265625 18.874992q-5.25 9.296875 -13.40625 14.640625q-8.140625 5.328125 -18.984375 5.328125q-7.34375 0 -13.203125 -2.984375q-5.84375 -3.0 -9.046875 -8.265625q-3.203125 -5.265625 -3.203125 -11.71875q0 -17.390617 12.125 -29.937492q5.46875 -5.625 11.796875 -8.25q6.328125 -2.640625 14.5625 -2.640625zm-4.375 3.859375q-9.484375 0 -15.453125 8.859375q-5.953125 8.84375 -5.953125 23.312492q0 11.046875 4.578125 17.484375q4.578125 6.421875 12.03125 6.421875q5.890625 0 10.78125 -4.234375q4.890625 -4.25 7.625 -11.84375q2.734375 -7.609375 2.734375 -17.187492q0 -6.9375 -2.078125 -12.140625q-2.078125 -5.203125 -5.828125 -7.9375q-3.75 -2.734375 -8.4375 -2.734375zm51.243347 58.531242q-8.28125 0 -18.484375 1.296875l0.875 -2.90625l4.125 -1.15625q2.390625 -0.671875 3.5 -1.84375q1.125 -1.171875 2.90625 -5.4375q3.171875 -7.5625 13.109375 -47.765617q-6.03125 0.53125 -10.703125 3.34375q-4.65625 2.8125 -7.203125 7.453125q-2.546875 4.625 -2.546875 9.890625q0 4.3749924 2.125 8.015617q1.3125 2.1875 1.3125 3.375q0 1.515625 -1.234375 2.484375q-1.21875 0.953125 -2.734375 0.953125q-2.90625 0 -4.453125 -2.953125q-1.53125 -2.96875 -1.53125 -8.031242q0 -6.71875 4.21875 -13.640625q4.21875 -6.921875 11.1875 -10.484375q6.984375 -3.578125 16.71875 -3.578125l20.375 0q7.75 0 12.546875 -1.203125q-0.625 2.765625 -1.390625 5.84375q-0.75 3.0625 -1.265625 6.453125l-2.765625 0q0.421875 -2.34375 0.421875 -4.265625q0 -1.515625 -0.921875 -2.21875q-0.90625 -0.703125 -3.171875 -0.953125q-2.265625 -0.265625 -10.859375 -0.265625l-7.03125 0.09375l-5.71875 23.03125l11.296875 0q2.546875 0 3.828125 -0.28125q1.28125 -0.296875 1.921875 -1.015625q0.65625 -0.734375 1.171875 -3.296875l2.875 0q-0.890625 2.921875 -1.515625 6.4687424q-0.625 3.53125 -1.359375 7.4375l-2.65625 0l0 -0.578125l0.21875 -3.265625q0 -1.359375 -1.546875 -1.796875q-1.53125 -0.453125 -3.71875 -0.453125l-11.40625 0q-1.921875 7.453125 -4.03125 14.125q-2.109375 6.65625 -5.03125 12.546875q4.265625 -1.515625 7.609375 -1.515625q3.53125 0 6.609375 0.625q3.078125 0.625 5.59375 1.40625q2.53125 0.78125 4.578125 1.40625q2.0625 0.625 3.578125 0.625q2.96875 0 4.234375 -0.796875q1.28125 -0.8125 1.28125 -1.96875q0 -0.875 -0.671875 -2.75q-0.671875 -1.828125 -0.671875 -3.125q0 -1.5625 1.109375 -2.625q1.125 -1.078125 3.046875 -1.078125q1.9375 0 3.078125 1.40625q1.140625 1.40625 1.140625 3.59375q0 4.84375 -4.328125 8.03125q-4.3125 3.171875 -11.234375 3.171875q-2.765625 0 -11.625 -0.9375q-8.90625 -0.890625 -14.78125 -0.890625zm111.65259 -54.531242q-0.828125 2.453125 -1.40625 4.484375q-0.578125 2.03125 -4.015625 15.828125q8.28125 0 12.34375 -4.6875q4.0625 -4.6875 4.0625 -10.875q0 -4.484375 -3.09375 -7.21875q-3.09375 -2.734375 -9.1875 -2.734375q-9.53125 0 -18.265625 4.328125q-8.71875 4.3125 -13.765625 11.453125q-5.046875 7.140625 -5.046875 14.953117q0 5.765625 4.578125 8.328125q3.28125 1.875 4.234375 2.84375q0.96875 0.953125 0.96875 2.25q0 1.625 -1.125 2.53125q-1.109375 0.90625 -2.625 0.90625q-2.390625 0 -4.6875 -2.234375q-2.28125 -2.234375 -3.53125 -5.75q-1.25 -3.515625 -1.25 -7.84375q0 -7.4374924 3.59375 -14.031242q3.59375 -6.59375 9.421875 -11.25q5.828125 -4.65625 13.171875 -7.15625q7.34375 -2.5 16.046875 -2.5q9.890625 0 15.5625 3.484375q5.6875 3.484375 5.6875 9.171875q0 5.046875 -3.828125 9.1875q-3.828125 4.140625 -11.546875 6.375q7.65625 1.046875 11.25 4.4374924q3.59375 3.375 3.59375 8.484375q0 5.5625 -3.515625 10.484375q-3.515625 4.921875 -10.46875 8.359375q-6.953125 3.4375 -15.171875 3.4375q-3.75 0 -9.484375 -0.40625q-5.40625 -0.109375 -7.34375 -0.109375q-5.3125 0 -9.46875 0.828125l0.71875 -2.859375q5.890625 -0.3125 8.078125 -2.890625q2.1875 -2.578125 4.0625 -10.03125l7.703125 -30.140617q0.515625 -1.984375 0.515625 -3.03125q0 -0.71875 -0.65625 -1.3125q-0.640625 -0.609375 -1.6875 -0.609375l-1.03125 0.15625l0.625 -2.609375q8.4375 -0.5625 15.984375 -2.03125zm-15.671875 50.781242q4.375 1.203125 7.4375 1.203125q8.546875 0 12.765625 -5.734375q4.21875 -5.734375 4.21875 -12.5q0 -3.234375 -1.625 -5.796875q-1.609375 -2.578125 -4.15625 -3.5625q-2.546875 -1.0 -9.265625 -1.0q-3.859375 15.25 -5.109375 19.0625q-1.25 3.796875 -2.171875 5.5q-0.90625 1.6875 -2.09375 2.828125zm74.41528 -26.09375l-7.03125 27.703125q2.546875 0.3125 4.0625 0.3125q2.703125 0 5.625 -0.71875l-0.515625 2.546875q-2.921875 0.734375 -5.3125 0.734375q-2.765625 0 -6.515625 -0.421875q-4.015625 -0.3125 -6.8125 -0.3125q-4.53125 0 -11.3125 1.203125l0.734375 -2.921875q5.671875 -1.40625 7.453125 -2.859375q2.65625 -2.34375 4.0625 -7.921875l7.234375 -29.109367q1.40625 -5.421875 1.40625 -6.515625q0 -0.9375 -0.6875 -1.34375q-0.671875 -0.421875 -2.59375 -0.421875l0.71875 -2.609375q6.46875 0 15.78125 -1.875q-0.875 2.875 -5.515625 21.203117q1.875 0.515625 3.796875 0.515625q5.890625 0 10.0 -4.6874924q4.125 -4.6875 4.125 -10.671875q0 -5.0 -3.5 -8.046875q-3.484375 -3.046875 -9.3125 -3.046875q-8.75 0 -16.546875 3.9375q-7.78125 3.921875 -12.0 9.65625q-4.21875 5.734375 -4.21875 11.828125q0 2.9062424 1.171875 4.7812424q1.171875 1.875 3.515625 3.640625q1.828125 1.3125 2.625 2.359375q0.8125 1.03125 0.8125 2.328125q0 1.3125 -0.9375 2.296875q-0.9375 0.984375 -2.390625 0.984375q-3.484375 0 -5.890625 -4.3125q-2.390625 -4.328125 -2.390625 -10.046875q0 -8.703117 5.28125 -15.749992q5.296875 -7.0625 14.171875 -11.125q8.875 -4.0625 18.296875 -4.0625q10.78125 0 17.109375 3.671875q6.328125 3.671875 6.328125 10.078125q0 6.5 -5.5 12.0q-5.484375 5.4999924 -15.171875 7.1093674q1.296875 2.390625 2.59375 5.28125q1.3125 2.890625 3.8125 10.59375q4.84375 14.59375 9.21875 20.6875q4.375 6.09375 9.640625 6.09375q1.8125 0 3.109375 -1.125q1.3125 -1.125 1.78125 -3.359375q0.71875 -3.234375 1.734375 -4.359375q1.015625 -1.109375 2.53125 -1.109375q1.671875 0 2.765625 1.09375q1.09375 1.09375 1.09375 2.859375q0 2.609375 -2.25 4.8125q-2.234375 2.21875 -5.046875 3.234375q-2.8125 1.015625 -6.25 1.015625q-16.8125 0 -25.828125 -21.65625q-2.078125 -4.75 -5.625 -16.515625l-2.34375 -7.546875l-1.09375 -0.109375zm85.05084 27.078125q3.640625 0.9375 6.921875 0.9375q2.390625 0 4.375 -0.515625l-0.515625 2.96875q-1.15625 0.203125 -3.34375 0.203125q-2.1875 0 -6.96875 -0.40625l-6.046875 -0.421875q-4.484375 0 -7.96875 0.625q2.921875 -7.140625 3.953125 -15.578125l0.53125 -3.796875l-3.96875 0l-14.84375 0.203125q-8.6875 13.34375 -12.46875 18.234375q-3.765625 4.890625 -6.578125 7.390625q-2.8125 2.5 -5.765625 3.671875q-2.9375 1.171875 -6.21875 1.171875q-6.046875 0 -6.046875 -5.3125q0 -1.765625 0.78125 -2.8125q0.78125 -1.03125 2.296875 -1.03125q0.625 0 2.765625 0.46875q2.125 0.515625 3.21875 0.515625q5.265625 0 8.390625 -3.015625q3.953125 -3.75 8.40625 -9.578125q4.453125 -5.84375 11.90625 -17.25q13.953125 -21.406242 24.421875 -33.015617q-10.3125 0.984375 -13.078125 1.5625q-2.75 0.578125 -4.578125 1.390625q-1.828125 0.796875 -2.96875 1.921875q-1.140625 1.109375 -1.84375 2.78125q-0.703125 1.671875 -0.703125 3.4375q0 1.515625 0.78125 3.484375q0.71875 2.03125 0.71875 2.8125q0 1.203125 -1.25 2.125q-1.25 0.90625 -2.8125 0.90625q-2.390625 0 -3.6875 -1.4375q-1.296875 -1.4375 -1.296875 -3.9375q0 -7.1875 6.453125 -11.96875q6.453125 -4.796875 17.546875 -5.625l5.421875 -0.375q4.46875 -0.203125 7.515625 -1.078125q3.046875 -0.890625 5.1875 -2.609375q-1.5625 6.1875 -2.34375 11.765625l-4.0625 29.531242l-2.234375 21.65625zm-3.65625 -50.765617q-10.78125 14.421875 -21.5625 30.921867l5.9375 0.109375q9.59375 0 10.625 -0.109375q2.140625 -18.890617 5.0 -30.921867zm66.87866 11.8125q0.40625 -4.0625 0.40625 -7.75q0 -4.640625 -2.234375 -7.1875q-2.234375 -2.5625 -6.40625 -2.5625q-5.359375 0 -9.40625 4.015625q-4.03125 4.015625 -4.03125 9.421875q0 3.078125 1.34375 5.375q1.359375 2.28125 5.0625 5.9375q7.390625 7.2812424 9.625 11.249992q2.25 3.953125 2.359375 7.859375q0 6.25 -3.90625 11.484375q-3.90625 5.234375 -11.0 8.375q-7.078125 3.15625 -14.671875 3.15625q-4.484375 0 -8.859375 -1.625q-4.375 -1.609375 -7.03125 -4.34375q-2.65625 -2.734375 -2.65625 -5.953125q0 -2.71875 1.609375 -4.359375q1.625 -1.640625 3.8125 -1.640625q2.34375 0 3.40625 1.640625q1.0625 1.640625 1.640625 4.453125q0.734375 4.125 2.765625 6.125q2.03125 2.0 6.5 2.421875q6.828125 0 11.875 -4.84375q5.046875 -4.84375 5.046875 -11.359375q0 -3.59375 -1.953125 -6.8125q-1.953125 -3.234375 -7.109375 -8.234375q-4.15625 -4.15625 -5.703125 -6.3125q-1.53125 -2.1718674 -2.28125 -4.4062424q-0.75 -2.25 -0.75 -4.640625q0 -5.203125 3.375 -9.921875q3.390625 -4.71875 9.1875 -7.421875q5.8125 -2.703125 12.53125 -2.703125q3.703125 0 7.234375 0.546875q3.546875 0.546875 6.9375 1.0625l-0.578125 1.984375q-0.828125 2.59375 -1.296875 4.3125q-0.46875 1.71875 -2.09375 12.65625l-2.75 0zm52.333435 -19.9375l-0.828125 2.8125q-4.6875 0.3125 -6.40625 0.890625q-1.71875 0.5625 -2.765625 1.734375q-1.046875 1.171875 -1.71875 3.40625q-5.046875 17.40625 -12.8125 50.046867q3.28125 1.046875 7.453125 1.046875l1.8125 0l-0.828125 2.453125l-0.828125 0l-2.1875 -0.109375q-8.28125 -0.625 -14.890625 -0.625q-7.140625 0 -12.5 0.9375l0.671875 -2.65625q4.890625 -0.734375 7.359375 -1.75q2.484375 -1.015625 3.375 -3.140625q0.71875 -1.78125 4.15625 -14.5625q3.4375 -12.781242 9.171875 -36.531242l-1.359375 0q-2.703125 0 -7.5 1.09375l1.09375 -2.921875q4.21875 -1.03125 13.953125 -1.25q10.78125 -0.203125 15.578125 -0.875zm41.917603 -1.046875q4.375 0 7.625 1.984375q3.265625 1.96875 3.265625 4.421875q0 1.515625 -1.015625 2.5625q-1.015625 1.03125 -2.6875 1.03125q-2.078125 0 -4.84375 -2.65625q-2.390625 -2.296875 -3.546875 -2.890625q-1.140625 -0.59375 -2.28125 -0.59375q-3.859375 0 -7.6875 6.90625q-3.828125 6.890625 -7.46875 21.843742q-3.390625 13.328125 -5.3125 18.875q-1.921875 5.546875 -4.15625 7.78125q7.328125 -2.65625 11.390625 -2.65625q3.078125 0 4.90625 0.421875q3.4375 0.78125 7.8125 2.234375q4.6875 1.609375 6.71875 1.609375q1.96875 0 3.265625 -1.1875q1.3125 -1.203125 1.3125 -2.875q0 -1.09375 -0.734375 -2.75q-0.78125 -1.671875 -0.78125 -2.765625q0 -1.515625 0.984375 -2.46875q1.0 -0.96875 2.671875 -0.96875q1.921875 0 3.34375 1.515625q1.4375 1.5 1.4375 4.265625q0 4.84375 -4.265625 7.96875q-4.265625 3.125 -11.296875 3.125q-7.40625 0 -16.71875 -1.046875q-9.328125 -0.984375 -12.96875 -0.984375q-8.90625 0 -15.671875 0.828125l0.671875 -2.75q5.46875 -1.09375 7.234375 -2.34375q1.9375 -1.46875 3.421875 -5.109375q1.484375 -3.640625 3.921875 -14.109375q3.28125 -14.109367 5.984375 -20.124992q2.71875 -6.015625 6.640625 -10.265625q3.9375 -4.25 8.75 -6.515625q4.828125 -2.265625 10.078125 -2.3125z" fill-rule="nonzero"/></g></svg>